<svg xmlns="http://www.w3.org/2000/svg" viewBox="0 0 800 600">
  <defs>
    <linearGradient id="bgGradB3" x1="100%" y1="0%" x2="0%" y2="100%">
      <stop offset="0%" style="stop-color:#005596;stop-opacity:0.08" />
      <stop offset="50%" style="stop-color:#C99700;stop-opacity:0.04" />
      <stop offset="100%" style="stop-color:#00AEEF;stop-opacity:0.08" />
    </linearGradient>
    <pattern id="linePatternB3" width="20" height="20" patternUnits="userSpaceOnUse">
      <path d="M 0 20 L 20 0" stroke="#005596" stroke-width="0.5" opacity="0.1"/>
    </pattern>
  </defs>
  
  <!-- Background -->
  <rect width="800" height="600" fill="url(#bgGradB3)"/>
  <rect width="800" height="600" fill="url(#linePatternB3)"/>
  
  <!-- Timeline elements -->
  <g opacity="0.1">
    <line x1="100" y1="100" x2="100" y2="500" stroke="#005596" stroke-width="4"/>
    <circle cx="100" cy="150" r="12" fill="#C99700"/>
    <circle cx="100" cy="250" r="12" fill="#005596"/>
    <circle cx="100" cy="350" r="12" fill="#C99700"/>
    <circle cx="100" cy="450" r="12" fill="#005596"/>
    
    <rect x="130" y="138" width="200" height="24" rx="4" fill="#005596"/>
    <rect x="130" y="238" width="180" height="24" rx="4" fill="#C99700"/>
    <rect x="130" y="338" width="220" height="24" rx="4" fill="#005596"/>
    <rect x="130" y="438" width="160" height="24" rx="4" fill="#C99700"/>
  </g>
  
  <!-- Checkmark badges -->
  <g transform="translate(550, 100)" opacity="0.08">
    <circle cx="50" cy="50" r="40" fill="#C99700"/>
    <path d="M 35 50 L 45 60 L 65 40" fill="none" stroke="white" stroke-width="4" stroke-linecap="round" stroke-linejoin="round"/>
  </g>
  <g transform="translate(580, 250)" opacity="0.08">
    <circle cx="50" cy="50" r="35" fill="#005596"/>
    <path d="M 35 50 L 45 60 L 65 40" fill="none" stroke="white" stroke-width="4" stroke-linecap="round" stroke-linejoin="round"/>
  </g>
  <g transform="translate(560, 400)" opacity="0.08">
    <circle cx="50" cy="50" r="45" fill="#C99700"/>
    <path d="M 35 50 L 45 60 L 65 40" fill="none" stroke="white" stroke-width="4" stroke-linecap="round" stroke-linejoin="round"/>
  </g>
</svg>